REM DIRINDEX 1\2,1\3
REM DIRNAME folder01,folder02,folder03
TITLE ""
FILE "Disk1Track62.mp3" MP3
  TRACK 01 AUDIO
    TITLE "2:cjc052_0432"
    INDEX 01 00:00:00
  TRACK 02 AUDIO
    TITLE "2:cjc052_0433"
    INDEX 01 00:03:70
  TRACK 03 AUDIO
    TITLE "2:cjc052_0434"
    INDEX 01 00:09:06
  TRACK 04 AUDIO
    TITLE "2:cjc052_0435"
    INDEX 01 00:18:17
  TRACK 05 AUDIO
    TITLE "2:cjc052_0436"
    INDEX 01 00:32:35
  TRACK 06 AUDIO
    TITLE "0:"
    INDEX 01 00:43:66
